<svg width="301" height="97" viewBox="0 0 301 97" fill="none" xmlns="http://www.w3.org/2000/svg">
<path d="M0 0H24.2721V24.25H0V0Z" fill="#FF5200"/>
<path d="M24.2721 48.5H48.5442V72.75H24.2721V48.5Z" fill="#FF5200"/>
<path d="M72.8163 0H97.0884V24.25H72.8163V0Z" fill="#FF5200"/>
<path d="M0 72.75H24.2721V97H0V72.75Z" fill="#FF5200"/>
<path d="M0 48.5H24.2721V72.75H0V48.5Z" fill="#FF5200"/>
<path d="M0 24.25H24.2721V48.5H0V24.25Z" fill="#FF5200"/>
<path d="M72.8163 48.5H97.0884V72.75H72.8163V48.5Z" fill="#FF5200"/>
<path d="M24.2721 0H48.5442V24.25H24.2721V0Z" fill="#FF5200"/>
<path d="M48.5442 72.75H72.8163V97H48.5442V72.75Z" fill="#FF5200"/>
<path d="M48.5442 24.25H72.8163V48.5H48.5442V24.25Z" fill="#FF5200"/>
<path d="M132.23 35.502H150.499V40.6352H137.613V47.1536H150.254V52.2869H137.613V64.02H132.23V35.502Z" fill="white"/>
<path d="M157.158 59.1312H164.008V48.7018H157.647V43.813H169.146V59.1312H175.018V64.02H157.158V59.1312ZM170.41 37.8242C170.41 38.3674 170.302 38.8834 170.084 39.3723C169.894 39.834 169.622 40.2414 169.269 40.5945C168.915 40.9204 168.494 41.192 168.004 41.4093C167.542 41.5994 167.053 41.6945 166.536 41.6945C165.993 41.6945 165.49 41.5994 165.028 41.4093C164.566 41.192 164.158 40.9204 163.804 40.5945C163.451 40.2414 163.166 39.834 162.948 39.3723C162.758 38.8834 162.663 38.3674 162.663 37.8242C162.663 37.281 162.758 36.7785 162.948 36.3168C163.166 35.8279 163.451 35.4205 163.804 35.0946C164.158 34.7415 164.566 34.4699 165.028 34.2798C165.49 34.0625 165.993 33.9539 166.536 33.9539C167.053 33.9539 167.542 34.0625 168.004 34.2798C168.494 34.4699 168.915 34.7415 169.269 35.0946C169.622 35.4205 169.894 35.8279 170.084 36.3168C170.302 36.7785 170.41 37.281 170.41 37.8242Z" fill="white"/>
<path d="M180.78 43.813H189.343V46.7462H190.077C190.458 45.6327 191.097 44.7771 191.994 44.1796C192.918 43.5549 194.019 43.2426 195.297 43.2426C197.308 43.2426 198.926 43.8809 200.149 45.1574C201.373 46.4067 201.984 48.3215 201.984 50.9017V51.798L196.683 52.2869V51.7165C196.683 50.603 196.398 49.7203 195.827 49.0684C195.256 48.3894 194.4 48.0499 193.258 48.0499C192.116 48.0499 191.219 48.4437 190.567 49.2314C189.914 50.019 189.588 51.1462 189.588 52.6128V59.1312H194.237V64.02H180.291V59.1312H184.45V48.7018H180.78V43.813Z" fill="white"/>
<path d="M211.253 55.5868C211.28 56.1843 211.416 56.7411 211.661 57.2572C211.933 57.746 212.286 58.1806 212.721 58.5608C213.183 58.9139 213.7 59.1991 214.271 59.4164C214.869 59.6065 215.494 59.7016 216.146 59.7016C217.424 59.7016 218.403 59.4843 219.082 59.0497C219.762 58.588 220.251 58.0448 220.55 57.4201L224.954 59.8645C224.71 60.3806 224.37 60.9238 223.935 61.4941C223.5 62.0373 222.929 62.5398 222.222 63.0015C221.542 63.4632 220.7 63.8435 219.694 64.1422C218.715 64.441 217.56 64.5904 216.228 64.5904C214.706 64.5904 213.319 64.3459 212.069 63.857C210.818 63.3682 209.731 62.662 208.806 61.7386C207.909 60.8151 207.203 59.688 206.686 58.3571C206.197 57.0263 205.952 55.5189 205.952 53.835V53.5906C205.952 52.0424 206.21 50.6301 206.727 49.3536C207.27 48.0771 208.004 46.9907 208.929 46.0944C209.853 45.1981 210.927 44.5055 212.15 44.0167C213.401 43.5006 214.733 43.2426 216.146 43.2426C217.886 43.2426 219.381 43.5549 220.632 44.1796C221.882 44.7771 222.915 45.5512 223.731 46.5018C224.546 47.4252 225.144 48.4573 225.525 49.598C225.906 50.7116 226.096 51.798 226.096 52.8572V55.5868H211.253ZM216.106 47.887C214.801 47.887 213.74 48.2265 212.925 48.9055C212.109 49.5573 211.579 50.3178 211.335 51.1869H220.876C220.713 50.2363 220.197 49.4487 219.327 48.824C218.484 48.1993 217.41 47.887 216.106 47.887Z" fill="white"/>
<path d="M230.39 58.8868H233.081V40.6352H230.39V35.502H242.909C244.268 35.502 245.464 35.6921 246.497 36.0724C247.557 36.4526 248.441 36.9686 249.147 37.6205C249.881 38.2723 250.425 39.06 250.779 39.9834C251.159 40.8797 251.349 41.8574 251.349 42.9167V43.4056C251.349 45.0352 250.887 46.3388 249.963 47.3166C249.066 48.2944 247.924 48.9734 246.538 49.3536V50.0869C247.924 50.4672 249.066 51.1597 249.963 52.1647C250.887 53.1424 251.349 54.4461 251.349 56.0757V56.5646C251.349 57.6238 251.159 58.6152 250.779 59.5386C250.425 60.4349 249.881 61.2225 249.147 61.9015C248.441 62.5534 247.557 63.0694 246.497 63.4496C245.464 63.8299 244.268 64.02 242.909 64.02H230.39V58.8868ZM238.464 58.8868H242.378C243.52 58.8868 244.444 58.6423 245.151 58.1534C245.858 57.6646 246.211 56.8498 246.211 55.709V55.4646C246.211 54.3239 245.858 53.5091 245.151 53.0202C244.444 52.5313 243.52 52.2869 242.378 52.2869H238.464V58.8868ZM238.464 47.1536H242.378C243.52 47.1536 244.444 46.9228 245.151 46.4611C245.858 45.9722 246.211 45.1574 246.211 44.0167V43.7722C246.211 42.6315 245.858 41.8303 245.151 41.3686C244.444 40.8797 243.52 40.6352 242.378 40.6352H238.464V47.1536Z" fill="white"/>
<path d="M276.481 54.1609C276.481 55.8448 276.195 57.3386 275.624 58.6423C275.053 59.9188 274.279 61.0052 273.3 61.9015C272.321 62.7706 271.193 63.4361 269.915 63.8978C268.665 64.3595 267.346 64.5904 265.96 64.5904C264.574 64.5904 263.242 64.3595 261.964 63.8978C260.713 63.4361 259.599 62.7706 258.62 61.9015C257.641 61.0052 256.867 59.9188 256.296 58.6423C255.725 57.3386 255.44 55.8448 255.44 54.1609V53.672C255.44 52.0153 255.725 50.5486 256.296 49.2721C256.867 47.9684 257.641 46.8685 258.62 45.9722C259.599 45.0759 260.713 44.3969 261.964 43.9352C263.242 43.4735 264.574 43.2426 265.96 43.2426C267.346 43.2426 268.665 43.4735 269.915 43.9352C271.193 44.3969 272.321 45.0759 273.3 45.9722C274.279 46.8685 275.053 47.9684 275.624 49.2721C276.195 50.5486 276.481 52.0153 276.481 53.672V54.1609ZM265.96 59.7016C266.694 59.7016 267.387 59.5793 268.04 59.3349C268.692 59.0905 269.263 58.7374 269.752 58.2757C270.242 57.8139 270.622 57.2572 270.894 56.6053C271.193 55.9263 271.343 55.1658 271.343 54.3239V53.5091C271.343 52.6671 271.193 51.9202 270.894 51.2684C270.622 50.5894 270.242 50.019 269.752 49.5573C269.263 49.0956 268.692 48.7425 268.04 48.4981C267.387 48.2536 266.694 48.1314 265.96 48.1314C265.226 48.1314 264.533 48.2536 263.88 48.4981C263.228 48.7425 262.657 49.0956 262.168 49.5573C261.678 50.019 261.284 50.5894 260.985 51.2684C260.713 51.9202 260.577 52.6671 260.577 53.5091V54.3239C260.577 55.1658 260.713 55.9263 260.985 56.6053C261.284 57.2572 261.678 57.8139 262.168 58.2757C262.657 58.7374 263.228 59.0905 263.88 59.3349C264.533 59.5793 265.226 59.7016 265.96 59.7016Z" fill="white"/>
<path d="M295.047 43.813H300.715L295.821 53.3054V54.0387L301 64.02H295.087L291.295 56.1164H290.561L286.769 64.02H280.856L286.035 54.0387V53.3054L281.101 43.813H286.81L290.561 51.2276H291.295L295.047 43.813Z" fill="white"/>
</svg>
